<svg role="img" xmlns="http://www.w3.org/2000/svg" xmlns:xlink="http://www.w3.org/1999/xlink" width="305" height="94" viewBox="0 0 305 94">
  <rect width="100%" height="100%" fill="white"/>
  <title>west orthodontics jerad l west dds</title>
  <defs>
    <g id="info">
      <path id="mono" fill="#231F20" d="M153.23 66.22H0V0h153.23v66.22z"></path>
      <path id="sobriquet" fill="#FFF" d="M95.58 33.96c1.47 2 3.99 3.7 6.87 3.7 3.78 0 6.56-1.6 6.56-5.48 0-7.26-16.48-3.29-16.48-14.28 0-5.52 4.57-8.9 11.07-8.9a13.6 13.6 0 0 1 10.13 4.56l-3.46 3.02c-1.94-1.79-3.94-3.47-6.93-3.47-3.3 0-5.66 1.82-5.66 4.79 0 6.43 16.47 3.51 16.47 14.32 0 5.57-4.93 9.54-11.17 9.54-4.94 0-7.93-2.06-11.18-5.07l3.78-2.73zm34.94-20.12v27.74l5.14-.55v-27.2h8.4v-4.1H122.8l-1.63 4.1h9.34zM82 41.03l1.47-4.1H67.14V26.8h12.12v-4.11H67.14v-8.85H82.3l-1.1-4.1H62v31.29h20zM8.06 9.63l11.36 32.6L30.4 20.46l10.2 21.76 11.8-32.6-6.19-.73-6.36 21.08-9.63-19.52-9.8 19.25L14.4 8.9l-6.35.72z"></path>
      <path id="vocation" fill="#FFF" d="M14.89 49.37c2.02 0 3.87 1.5 3.87 5 0 3.49-1.85 5-3.87 5s-3.87-1.51-3.87-5c0-3.5 1.85-5 3.87-5m0 8.63c1.13 0 2.03-.96 2.03-3.63s-.9-3.63-2.03-3.63-2.03.96-2.03 3.63.9 3.63 2.03 3.63m8.97-8.49h3.04c1.72 0 2.9.78 2.9 2.56 0 1.27-.8 2.12-1.89 2.28v.04c.37.06.77.23 1.07 1.13l1.27 3.7h-1.9l-.96-3.16c-.23-.76-.69-1.01-1.34-1.01h-.4v4.17h-1.79v-9.7zm2.5 4.23c.95 0 1.6-.48 1.6-1.47 0-1.12-.59-1.4-1.6-1.4h-.72v2.87h.73zm9.93 5.48h1.78v-8.29h2.16v-1.42h-6.11v1.42h2.17v8.3zm8.78 0h1.78v-4.28h2.88v4.28h1.78v-9.7h-1.78v3.94h-2.88v-3.95h-1.78v9.71zm15.5-9.85c2.02 0 3.87 1.5 3.87 5 0 3.49-1.85 5-3.87 5s-3.87-1.51-3.87-5c0-3.5 1.85-5 3.87-5m0 8.63c1.13 0 2.03-.96 2.03-3.63s-.9-3.63-2.03-3.63-2.03.96-2.03 3.63.9 3.63 2.03 3.63m8.97-8.49h2.54c3.03 0 4.64 1.65 4.64 4.86 0 3.27-1.95 4.85-4.64 4.85h-2.54v-9.7zm1.79 8.35h.6c2 0 2.9-1.36 2.9-3.5 0-2.12-.9-3.48-2.9-3.48h-.6v6.98zm14.06-8.49c2.02 0 3.87 1.5 3.87 5 0 3.49-1.85 5-3.87 5-2.01 0-3.87-1.51-3.87-5 0-3.5 1.86-5 3.87-5m0 8.63c1.13 0 2.04-.96 2.04-3.63s-.91-3.63-2.04-3.63-2.03.96-2.03 3.63.9 3.63 2.03 3.63m9.04 1.22h1.62v-7.57h.03l3.2 7.57h2.14v-9.7H99.8v7.62h-.03l-3.23-7.63h-2.12v9.71zm13.99 0h1.78v-8.29h2.16v-1.42h-6.11v1.42h2.17v8.3zm8.8 0h1.77v-9.7h-1.78v9.7zm13.45-1.83c-.4.29-.98.5-1.84.5-1.48 0-2.74-1-2.74-3.52s1.27-3.52 2.74-3.52c.9 0 1.47.35 1.84.53l.1-1.6a6.16 6.16 0 0 0-2.16-.4c-2.9 0-4.41 2.15-4.41 4.99 0 2.84 1.51 5 4.46 5 .88 0 1.74-.16 2.1-.36l-.1-1.62zm4.95 1.54c.49.3 1.24.43 2.21.43 1.85 0 3.26-.94 3.26-2.92 0-1.36-.55-1.98-1.68-2.62l-1.05-.58c-.54-.3-1.03-.59-1.03-1.3 0-.68.46-1.15 1.35-1.15.82 0 1.4.25 1.83.42l.08-1.49c-.28-.09-1-.35-2.03-.35-1.63 0-3.06.9-3.06 2.64 0 1.26.62 2.02 1.58 2.55l.9.5c.87.47 1.27.78 1.27 1.48 0 .97-.7 1.4-1.47 1.4a3.9 3.9 0 0 1-2.06-.6l-.1 1.6z"></path>
    </g>
    <g id="mark">
      <path fill="#79BDE8" d="M6 6.47h139.5v81.65H6V6.47z"></path>
      <path fill="#FFF" d="M145.5 88.12H6V38.98a18.87 18.87 0 0 0 2.66-2.45c2.17-2.6 3.04-1.73 4.35-2.6 1.3-.87 5.64-1.74 7.8-1.74s2.61 0 5.22.44c2.6.43 1.73 0 3.47 0h5.64l7.38-1.3s9.12-2.18 10.42-2.61 5.64-2.17 5.64-2.17l5.21-.43 2.8.3a357.9 357.9 0 0 1 3.71-2.04l6.08-2.6 2.6-2.6 3.04-.88 3.47-.86 5.21.43s2.6 2.17 5.65 4.34c3.03 2.17 1.3.87 1.3.87h3.04l3.03 3.04 6.51 6.5c1.74 1.74 3.04 1.74 3.04 1.74l6.08 1.74s3.04.87 5.2 1.3c2.18.44 2.61 1.3 2.61 1.3l4.78 3.48 3.47 3.03 1.74.87 3.03 2.17s2.96.63 4.72 1.8l.6.38v37.69z"></path>
      <path fill="#808285" d="M34.16 88.12H6V63.89c.4-.46.83-.94 1.33-1.43 2.17-2.17 2.17-2.6 3.03-4.35.87-1.73 3.48-2.6 5.65-4.34 2.17-1.73 3.47-1.73 6.5-3.47 3.05-1.73 1.74-3.04 4.35-4.77 2.6-1.74 4.34-3.48 6.94-3.91l5.65-.87-3.48 3.04s-2.17 4.34-5.2 5.2c-3.04.88-2.38 4.84-4.11 6.58-1.74 1.73-3.9 5.64-6.51 7.81-2.6 2.17-9.79 7.76-8.05 7.76s3.9-1.3 9.55-1.74l.91-.07c-.49.85-.85 1.99-2 3.53-2.23 2.97 2.98 4.46 5.95 6.69 2.98 2.23 2.23 2.97 5.95 6.7.8.8 1.32 1.38 1.71 1.87zm111.33-8c-5.13-2.88-17.16-9.58-19.2-10.6a37.17 37.17 0 0 0-15.19-3.47h-5.2s-5.22-1.74-11.73-4.34a24.32 24.32 0 0 0-4.41-1.46c3.93-1.93 12.56-6.67 12.23-10.7-.22-2.6-.33-3.58-.38-3.9l4.84-.12s1.5 0 2.23 2.97a12.72 12.72 0 0 0 2.98 5.21h5.2s0-.74 1.5 2.98c1.48 3.72 8.17 5.2 8.17 5.2s4.47.75 4.47 2.98 5.14 2.29 4.46 1.48c-.69-.8-1.49-3.71-1.49-3.71s-1.29-.82-2.97-2.24c-1.69-1.4-2.67-5.27-2.67-5.27.87-3.9 9.05-2.6 12.15-2.15 1.67.24 3.48.49 5.01.6v-3.35a59.9 59.9 0 0 0-1.85-.98c-1.78-.92-3.58-3.45-8.18-5.95-2.72-1.48-2.3-2.47-5.95-4.47-1.3-.7-4.22-1.69-5.2-2.23-1.8-.98-4.96-.5-4.96-.5l-13.46-7.82.87 3.91s1.74 3.04 0 4.77-3.04 2.6-4.34.87a15.48 15.48 0 0 0-4.78-4.34c-2.17-1.3-5.24-3.51-6.07-3.04-.83.48.53 3 1.3 4.78.78 1.78-3.04 3.9-3.04 3.9s-4.1-1.12-4.77-.43c-.67.7.4 3.65 0 5.21s-1.74 7.81-4.34 9.55c-1.3-1.74-7.38-3.04-7.38-3.04s-5.65-.87-9.12-2.17c-3.47-1.3-6.94-4.34-6.94-4.34-5.21 3.9-3.5 4.59-1.17 6.32 1.56 1.14 1.26 3.83-.91 3.83s-3.08.7-4.39 1.56c-1.3.87-.13 2.85 1.6 1.55 1.74-1.3 1.4-.24 8.34-1.54 6.94-1.3 8.68 0 10.85 0s8.25 1.74 10.42 4.34c2.17 2.6 12.59 6.51 16.5 9.12 3.9 2.6 6.07 11.28 7.37 12.15 1.3.87 5.64 2.17 6.08 5.2.11.83.1 1.33.1 1.68H132c-2.1-2.12-4.52-4.15-6.58-4.7-4.77-1.31-6.5-2.18-10.85-4.35-4.34-2.17-.87-6.08 1.74-6.51s7.81.87 9.98 1.74c2.17.86 5.64 2.6 7.38 5.64 1.74 3.04.43 6.5 3.47 4.77s4.43-.32 4.5.98c.02.62.7 1.5 1.71 2.43h2.14v-8zm-80.18 4.4c-3.9-3.04-3.34-1.8-5.95-2.24-1.42-.23-2.86-1.54-4.23-2.68 2.15 4.6 3.5 6.4 4.4 8.52h15.02c-2.24-3.9-5.57-.75-9.24-3.6zm-8.4-52.27c1.74-.43 2.76-.62 4.5-1.05 1.73-.44 2.58-1.85 4.75-1.85s3.96-4.76 3.96-4.76l-2.38 1.32-4.38.2s-3.04 1.3-4.35 1.3c-1.3 0-2.17 1.3-3.47 2.18s-4.34 3.47-5.64 4.34c-.4.26-.94.48-1.51.66-1.34.43-6.29-.75-2.83.64 3.45 1.39 7.38-1.3 7.38-1.3s2.23-1.24 3.97-1.68z"></path>
      <path fill="#004519" d="M91.13 81.1c-2.53-.68-3-1.84.46-3.22 3.46-1.39 1.16-3-1.15-3.46-2.3-.46-5.54-2.3-3.23-2.77 2.3-.46 2.23-2.54 2.23-2.54.12-1.57-3.8-.6-4.94-1.9-1.16-1.3.38-.67 2.25-2.68 1.6-1.73-2.26-.8-3.41-2.44-1.15-1.63-.97-4.77-2.13-6.08-1.15-1.31-1.77.68-2.15 2.64-.39 1.95-.06 8.26-2.75 8.26-3.3 0-6.55 2.58-1.47 4.13 7.16 2.18 2.47 3.14-.31 3.84-.92.23-2.77 1.15.23 2.54 3 1.38 3 1.61.69 1.84s-4.62 1.84-2.3 3c2.3 1.15 7.2 4.5 1.15 3.46-6.06-1.04-7.83-.97-9.08-1.29-1.25-.31 3.64-1.4 4.07-3.13.63-2.5-.06-.21-5-2.19-3.14-1.25 2.18-1.88 4.69-3.13 2.5-1.25 1.78-3.85-1.04-3.53-2.81.31-5.67-.63-2.23-2.51 3.45-1.88 5.58-4.74 2.51-4.46-3.81.34-9.6-.5-4.55-3.23 4.02-2.18 5.57-4.02-1.1-5.08-6.6-1.05 5.32-4.54 1.84-5.7-1.7-.57-3.06-1.32-3.82-2.3-.77-.98 4.63-1.38 1.25-2.87-2.05-.92-3.38-.79-4-4.71-.88-5.66-1.87-4.2-2.64-2.23-.77 1.96-.77 3.27-2.7 4.25-1.92.98-2.3 1.63-1.15 2.61 1.16.99 3.92 1.53 1.16 2.3-2.3.63-2.9-.02-3.46 1.02-1.27 2.38 7.04 4.09 3.07 4.2-4.61.14-6.54.44-5.58 1.98 1.33 2.12 5.3 3.18 1.44 3.84-3.84.65-7.53 1.78-1.83 3.98 0 0 2.8 1.2 3.39 1.55.57.34 1.39 1.78-2.17 1.18-3.15-.53-6.26.94-5.01 2.5 1.25 1.57 3.7 2.3 3.06 3.87-.31.8-1.16.85-2.05.84.58-1.34-.48-2.4-3.36-2.6C26.1 69.93 38.1 66.3 38.1 64s-12.12-3.6-13.27-4.57c-1.15-.98 4.03-3.6 5.57-5.57 1.54-1.96 4.24-2.62-1.92-5.23-6.16-2.62-5.77-1.96-2.7-4.25 3.08-2.3 1.98-2.74-1.53-3.93-9.13-3.08.86-3.11 2.78-5.73 1.93-2.62-2.78-1.46-5.48-2.44s.77-3.93 1.16-4.91c.38-.98-1.93-1.3-5-3.27-3.08-1.96-.77-3.93 1.92-4.58 2.7-.65-1.16-2.61-3.46-3.6-2.32-.98-3.33-2.38-4.23-6.18 0 0-2.07-5.14-2.45-.23-.11 1.35-.23 4.03-1.8 4.7a4.1 4.1 0 0 0-1.7 1.36v5.4c.62.27 1.2.74 1.7 1.52.44.68-.5 1.5-1.7 2.2v63.42h87.18c.02-.35-.2-.61-.86-.75-2.61-.54-1.63-2.57 1.13-2.57 2.78 0 .24-3-2.3-3.7zM27.57 70.69l-2.4-.4-.39-.8 1.6-.4 2.38 1.6h-1.2zm9.47 10.6c-3.28-.53-4.85-1.83-.1-3.53 1.22-.44 2.27-.92 3.16-1.4l.78.28c4.19 1.4 3.88 2.48 1.68 2.8-2.08.29-7.23-.9-5.52 1.84zm10.11 5.14c-.29 1.02-1.73.32-3.53 0a47.3 47.3 0 0 0 1.5-1.78c1.32.54 2.22 1.14 2.03 1.78zm5.56-4.5.52-.14.62-.11.29.5.13 1.17-1.56-1.43z"></path>
    </g>
  </defs>
  <g class="borders">
    <path class="outline" fill="none" stroke="#231F20" stroke-width="1.88" d="M.95 1h303.1v92H.95z"></path>
    <path class="median" fill="none" stroke="#231F20" stroke-width="1.88" d="M150.3.77V93"></path>
  </g>  
  <path class="name" fill="#231F20" d="M180.74 80.22c-.17 0-.32-.03-.48-.06a206.73 206.73 0 0 1-3.56 8.26c.24-.02.43-.06.63-.06s.38.04.58.06c.24-.82.51-1.63.85-2.44a43.27 43.27 0 0 1 2.9 0c.3.81.6 1.63.86 2.44.35-.02.7-.06 1.06-.06.35 0 .7.04 1.1.06-.95-1.94-2.41-5.55-3.47-8.26-.16.03-.31.06-.47.06zm-1.65 5.06c.36-.96.75-1.9 1.17-2.82.4.92.75 1.86 1.11 2.82h-2.28zm12-5.06c-1.1 0-1.71.06-2.26.06-.41 0-.75-.04-1.02-.06.07 1.05.1 1.96.1 3.3v1.6c0 1.34-.03 2.26-.1 3.3.27-.02.6-.06 1.02-.06.64 0 1.5.06 2.74.06a4.22 4.22 0 0 0 4.32-4.33c0-3-1.96-3.87-4.8-3.87zm-.23 7.52c-.5 0-.85-.02-1.1-.03v-6.75c.39-.04.7-.06 1.3-.06 1.72 0 2.86 1.21 2.86 3.16 0 2.47-1.19 3.68-3.06 3.68zm-26.44-7.52c-.02.14-.05.29-.05.5 0 .25.03.36.05.54-.94-.06-2.44-.15-2.82-.15-.06.87-.06 1.73-.06 2.6 1.09-.03 1.89-.05 2.83-.1-.05.27-.06.38-.06.53 0 .14.03.24.06.5a33.3 33.3 0 0 0-2.83-.11l-.01 1.52c0 .5.01 1 .03 1.48.94 0 1.9-.04 2.86-.15-.02.16-.05.28-.05.53s.03.37.05.52c-.45-.02-1.03-.07-2.18-.07-2.03 0-2.37.04-2.65.07.07-1.05.1-1.97.1-3.3v-1.61c0-1.33-.03-2.25-.1-3.3.74.02 1.49.06 2.22.06 1.23 0 2.28-.02 2.61-.06zm-8.83 3.3v1.6c0 .65.03 1.44.03 2.17 0 1.9-.92 2.76-2.76 3.04l-.19-.55c.69-.3.91-.5.98-1.36.07-1.04.1-1.96.1-3.3v-1.6c0-1.34-.03-2.25-.1-3.3.27.02.6.06 1.02.06.41 0 .75-.04 1.02-.06-.07 1.05-.1 1.96-.1 3.3zm18.18-1.33c0-.7-.31-1.22-.81-1.56-.44-.3-.9-.41-2.16-.41-.85 0-1.39.06-1.83.06-.42 0-.75-.04-1.03-.06.08 1.05.1 1.96.1 3.3v1.6c0 1.34-.02 2.26-.1 3.3.28-.02.61-.06 1.03-.06s.74.04 1.02.06c-.07-1.04-.1-1.96-.1-3.3v-.48h.11l2.24 3.78c.37-.02.76-.06 1.13-.06s.75.04 1.13.06c-.92-1.34-1.87-2.7-2.66-4.04 1.23-.3 1.93-1.03 1.93-2.19zm-3.6 1.97c-.1 0-.18-.02-.28-.03 0-1.08.01-2.15.04-3.23 1.36 0 1.93.15 1.93 1.56 0 1.11-.6 1.7-1.7 1.7zm39.46 3.22c-.02.16-.05.28-.05.53s.03.37.05.51c-.44-.01-1.03-.06-2.18-.06-2.04 0-2.37.04-2.64.06.07-1.04.1-1.96.1-3.3v-1.6c0-1.34-.03-2.25-.1-3.3.27.02.6.06 1.02.06.41 0 .75-.04 1.02-.06-.07 1.05-.1 1.96-.1 3.3v1.6c0 .89.01 1.8.03 2.41a25 25 0 0 0 2.85-.16zm53.83-.03c0 .29-.16.57-2.26 3.33l-.3-.12c.82-3.56 1.02-3.94 1.68-3.94.38 0 .88.24.88.73zm12.28-7.13c-1.1 0-1.71.06-2.26.06-.42 0-.75-.04-1.03-.06.08 1.05.1 1.96.1 3.3v1.6c0 1.34-.02 2.26-.1 3.3.28-.02.61-.06 1.03-.06.65 0 1.5.06 2.74.06a4.22 4.22 0 0 0 4.32-4.33c0-3-1.96-3.87-4.8-3.87zm-.23 7.52c-.51 0-.85-.02-1.1-.03v-6.75c.39-.04.7-.06 1.3-.06 1.72 0 2.86 1.21 2.86 3.16 0 2.47-1.19 3.68-3.06 3.68zm11.97-7.52c-1.1 0-1.7.06-2.25.06-.42 0-.75-.04-1.03-.06.08 1.05.1 1.96.1 3.3v1.6c0 1.34-.02 2.26-.1 3.3.28-.02.61-.06 1.03-.06.64 0 1.5.06 2.74.06a4.22 4.22 0 0 0 4.32-4.33c0-3-1.96-3.87-4.8-3.87zm-.22 7.52c-.51 0-.85-.02-1.1-.03l-.01-2.32v-2.11l.01-2.32c.39-.04.7-.06 1.3-.06 1.72 0 2.86 1.21 2.86 3.16 0 2.47-1.19 3.68-3.06 3.68zm13.37-1.85c0 1.6-1.32 2.69-3.3 2.69-.9 0-1.65-.26-2.01-.51.16-.55.27-.98.36-1.52h.24c.13.7.7 1.29 1.72 1.29.97 0 1.46-.55 1.46-1.21 0-1.8-3.72-1.32-3.72-4.02 0-1.64 1.32-2.54 2.8-2.54.9 0 1.58.22 2.05.58-.15.36-.23.65-.4 1.17h-.18c-.27-.67-.75-1.02-1.51-1.02s-1.3.5-1.3 1.07c0 1.76 3.8 1.32 3.8 4.02zm-40.98-5.67a2.37 2.37 0 0 0 0 1.05c-.67-.08-1.72-.16-2.22-.16-.03.17-.03.6-.03 1.05v2.97c0 1.33.03 2.25.1 3.3-.27-.03-.6-.07-1.02-.07-.41 0-.75.04-1.02.06.07-1.04.1-1.96.1-3.3v-2.96c0-.45 0-.88-.04-1.05-.49 0-1.54.08-2.28.16.03-.18.06-.35.06-.53 0-.17-.03-.34-.06-.52a72.91 72.91 0 0 0 6.41 0zm-9.08 5.67c0 1.6-1.33 2.69-3.3 2.69-.9 0-1.65-.26-2.02-.51.17-.55.28-.98.37-1.52h.23c.14.7.72 1.29 1.72 1.29.98 0 1.46-.55 1.46-1.21 0-1.8-3.71-1.32-3.71-4.02 0-1.64 1.32-2.54 2.8-2.54.9 0 1.57.22 2.05.58-.15.36-.24.65-.4 1.17h-.18a1.5 1.5 0 0 0-1.52-1.02c-.75 0-1.3.5-1.3 1.07 0 1.76 3.8 1.32 3.8 4.02zm-16.72-5.6c.19 0 .38-.03.58-.07-.34.92-2.05 5.58-2.85 8.2-.21-.02-.42-.06-.63-.06-.22 0-.44.04-.65.06a63.52 63.52 0 0 0-1.98-5.83h-.02c-.59 1.61-1.61 4.16-2.13 5.83-.22-.02-.43-.06-.64-.06-.21 0-.44.04-.65.06-.54-2.08-2.33-7.69-2.5-8.2a10.9 10.9 0 0 0 2.05 0c.51 2.03 1.16 4.34 1.63 6h.03c.73-2 1.8-4.9 2.14-6a3.77 3.77 0 0 0 1.25 0c.23 1.06 1.52 4.44 1.97 6h.03c.63-2 1.62-5.06 1.84-6 .18.04.37.06.53.06zm8.46-.07c-.02.14-.05.29-.05.5 0 .25.03.36.05.54-.95-.06-2.44-.15-2.82-.15-.06.87-.06 1.73-.06 2.6 1.08-.03 1.88-.05 2.83-.1a2.7 2.7 0 0 0-.06.53c0 .14.02.24.06.5-.95-.08-1.88-.11-2.83-.11l-.01 1.52c0 .5 0 1 .03 1.48.94 0 1.9-.04 2.86-.15-.03.16-.05.28-.05.53s.03.37.05.52c-.45-.02-1.03-.07-2.18-.07-2.04 0-2.37.04-2.65.07.08-1.05.1-1.97.1-3.3v-1.61c0-1.33-.02-2.25-.1-3.3.74.02 1.49.06 2.22.06 1.23 0 2.28-.02 2.61-.06zm-27.6 7.38a1 1 0 0 1-1.03.97 1 1 0 0 1-1.02-.97 1 1 0 0 1 1.02-.97 1 1 0 0 1 1.03.97z"></path>
  <use class="info" href="#info" x="150.819" y="7.5" data-coord="x150.819-y_6.375"></use>
  <use class="mark" href="#mark" x="0" y="0"></use>
</svg>