<?xml version="1.0" encoding="UTF-8"?>
<svg version="1.1" viewBox="0 0 2048 2048" width="512" height="512" xmlns="http://www.w3.org/2000/svg">
<path transform="translate(988,99)" d="m0 0h7v305l-1 289-1 128-4 4-16 10-32 19-56 34-30 18-28 17-5 3v17l4 188 8 5 27 15 24 13 23 13 24 13 23 13 26 14 13 8 4 5 2 276 1 242v201l-3 1-27-16-23-14-5-4-1-164-30 16-24 14-28 15-23 13-47 26-25 14-72 40-4 1-2-3-1-140 5-5 16-9 19-11 58-34 24-14 26-15 17-10 26-15 17-10 48-28v-26l1-2-22 12-17 10-28 16-24 14-28 16-26 15-21 12-26 15-21 12-24 14-15 8h-3l-1-3-1-18 1-121 1-4 11-7 15-9 32-19 13-8 27-16 40-24 27-16 25-15 32-19 22-13 9-6 1-35v-71l-65-39-64-38-15-9-9-6-5 1-36 20-22 12-24 13-14 8-1 13-3 197-1 85-5 4-29 17-27 16-44 26-16 9-4-1-1-10-2-200v-78l-26 13-1 297-9 6-22 12-24 14-25 14-24 14-15 8-6 1-2-3-1-285-26 15-29 17-26 15-20 12-45 26-5 1-29-13-26-12-4-3v-64l4-5 14-8 18-11 28-17 54-32 28-17 2-1-24-14-77-43-23-13-27-15-23-13-25-14-46-26-10-5-1-3 8-6 23-13 24-14 26-14 17-10 27-15 2-1h7l23 13 26 15 27 15 42 24 25 14 23 13 49 28 25 14 14 8 5-2 12-9 7-5h2l-2-3-14-7-23-13-29-16-27-15-25-14-24-13-23-13-22-12-23-13-24-13-14-8-3-4 4-5 16-9 16-10 70-42 12-7h6l27 14 23 13 16 8 22 12 25 13 22 12 23 12 22 12 32 17 22 12 23 12 5 2 21-12 27-15 46-26 1-133v-53l-45-26-23-13-24-14-16 8-27 15-24 14-22 12-24 14-24 13-42 24-25 14-18 10-21 12-15 9h-5l-8-5-44-24-25-14-29-16-15-9-3-2 1-5 10-7 28-16 23-13 42-24 23-13 21-12 23-13 28-16 18-10 21-12 11-6h2l-4-4-21-12-2-1-14 7-24 14-25 14-24 14-27 15-49 28-16 9-26 15-18 10-24 14-11 7-6-2-24-14-27-16-29-17-22-13-18-11v-4l9-6 48-28 26-15 28-16 24-14 25-14 24-14 25-14 39-23-9-6-25-15-28-17-29-17-26-16-28-17-1-1-1-19-1-42 5-5 23-11 31-15 3-2 5 1 20 11 23 13 27 15 25 14 23 13 25 14 1 1v-102l-1-118v-67l1-3 6 1 27 15 17 10 28 16 26 15 20 12 2 4 2 117 2 129 1 44 1 3 21 8 7 3-1-68-2-186v-32l2-4 9 3 21 12 24 14 26 15 22 13 20 12 2 2 1 29 2 102 4 159 1 9 19 10 28 15 34 18 10 6 5-1 20-12 29-17 35-21 17-10 35-21 16-9 2-1v-108l-24-14-23-13-84-48-26-15-25-14-24-14-25-14-21-12-5-4v-75l1-65 2-6 5 1 19 10 23 13 27 15 50 28 23 13 27 15 52 29 23 13 4 2v-16l1-10-8-5-15-9-26-15-22-13-26-15-46-27-19-11-22-13-26-15-22-13-24-14-5-4 1-4 2-2 1-135 1-4 7 1 22 12 23 13 21 12 46 26 21 12 23 13 49 28 25 14 20 12 1-170 4-4 21-11 21-12z" fill="#44B3FC"/>
<path transform="translate(1041,102)" d="m0 0h21l4 4 17 50 13 38 12 36 5 17v2h13l44 4 15 1 2-6 29-44 30-45 14-22 8-9 10 2 35 10 8 4 1 7 5 72 5 68 39 16 24 11 7 1 14-12 14-11 16-13 13-11 13-10 17-14 14-11 8-6 6-1 17 10 17 11 8 6-4 19-16 68-12 52 1 4 14 12 11 9 30 27 5 1 30-13 38-17 36-16 16-7 8-1 5 3 15 15 7 8 9 10 2 3v8l-9 16-26 44-16 27-10 17-9 15 1 7 16 24 17 28 3 5v2l115-14 21-2h10l5 5 14 29 6 14-1 3h-2l-2 4-16 15-39 36-17 16-13 12-14 13-6 4 9 28 9 33 2 11 39 6 102 17 11 3 2 10 4 42-1 5-29 15-23 13-23 12-22 12-26 14-11 6-1 70 10 3 38 18 33 15 36 17 19 9 2 2v11l-4 31-2 14-14 4-138 27-3 8-7 28-8 27-2 7 3 1v2l4 2 14 13 11 9 12 11 11 9 14 13 11 9 13 12 11 9 7 8-1 5-16 35-7 13-1 1-21-1-128-11-1 4-13 23-14 22-8 12 2 5 10 16 22 34 12 19 26 40 4 7v5l-13 16-8 10-11 13-2 3-8-1-59-22-40-15-30-11-5 1-6 5-17 17-11 9-15 13-6 5 8 29 18 62 12 41v5l-10 7-16 9-15 9-7 4-6-1-7-7-14-11-11-9-15-12-14-11-16-13-14-11-11-9-4-2-23 11-29 13-20 8h-2v25l-1 93-1 20-5 3-41 12-8 1-5-2-9-12-11-16-15-22-13-19-15-22-12-18-3-4-48 6-22 2h-8l-3 12-16 49-16 50-5 15-4 6-4 3-23 1-4-2-1-3-1-79-2-350-1-112-1-166 5-5 20-11 17-10 28-16 26-15 23-13 24-14 27-15 5-3v-211l-6-2-21-12-25-14-16-9-28-16-27-15-21-12-24-14-3-4v-21l-4-338-1-162-1-45v-55l-1-63v-32l2-3zm53 319v140l1 181 4 4 25 14 39 23 22 13 21 12 24 14 22 13 5 1 13-8 15-9 39-23 25-15 49-29 15-9 27-16 15-9 76-45-2-5-12-16-11-13-7-9-18-20-14-15-11-11-8-7-15-14-11-9-14-11-19-14-30-20-22-13-24-13-31-15-30-12-38-13-48-12-40-7-27-3zm493 351-24 13-49 28-25 14-23 13-21 12-25 14-28 16-25 14-23 13-27 15-5 4v188l28 16 104 60 24 14 23 13 38 22 24 14 28 16 11 7 4 1 12-29 12-36 10-37 6-27 5-31 3-23 3-49v-28l-2-33-3-33-8-47-6-25-7-26-8-25-8-22-11-27-4-9zm-325 444-24 14-23 13-24 14-49 28-36 21-7 4v317l2 1 42-5 26-4 29-6 27-7 26-8 32-12 34-15 29-15 28-17 24-16 19-14 16-13 13-11 16-15 4-3v-2l4-2 6-7 17-17 7-8 11-13 8-10 14-19 7-9 1-5-13-7-11-7-26-15-28-16-26-15-23-13-24-14-25-14-24-14-23-13-26-15-21-12-6-4z" fill="#035C93"/>
</svg>
